<?xml version="1.0" standalone="no"?><!DOCTYPE svg PUBLIC "-//W3C//DTD SVG 1.1//EN" "http://www.w3.org/Graphics/SVG/1.1/DTD/svg11.dtd"><svg t="1728401793343" class="icon" viewBox="0 0 1024 1024" version="1.1" xmlns="http://www.w3.org/2000/svg" p-id="20031" xmlns:xlink="http://www.w3.org/1999/xlink" width="256" height="256"><path d="M295.082667 826.197333a99.029333 99.029333 0 0 1-82.688-44.330666 98.602667 98.602667 0 0 1-16.682667-60.074667 20.992 20.992 0 0 1-7.338667-8.277333l-85.717333-171.434667a106.069333 106.069333 0 0 1 3.925333-102.570667l88.576-147.626666A107.221333 107.221333 0 0 1 249.173333 246.869333l313.429334-117.546666a21.461333 21.461333 0 0 1 17.024 0.896l256 128a21.333333 21.333333 0 0 1 10.666666 25.984c-1.578667 4.565333-39.125333 113.28-130.048 260.309333-86.4 139.776-200.448 173.909333-223.402666 179.498667L346.24 811.946667a99.242667 99.242667 0 0 1-51.157333 14.250666zM355.328 383.104a24.32 24.32 0 0 1 14.805333 5.589333c0.469333 0.384 48.256 37.973333 114.602667 37.973334a21.333333 21.333333 0 0 1 15.104 36.437333c-38.101333 38.101333-76.970667 100.565333-79.146667 113.92-0.042667 11.776-9.514667 20.309333-21.290666 20.309333 0.426667 0.469333-20.266667 8.490667-134.912 81.493334a56.618667 56.618667 0 0 0-16.725334 79.36 56.618667 56.618667 0 0 0 76.458667 17.237333l149.504-89.685333a22.912 22.912 0 0 1 6.826667-2.645334c1.109333-0.213333 115.2-24.832 199.338666-160.938666 67.669333-109.44 105.344-198.229333 119.424-234.282667l-230.528-115.242667-304.64 114.218667a64.384 64.384 0 0 0-32.426666 27.008l-88.576 147.626667a63.530667 63.530667 0 0 0-2.346667 61.525333l73.045333 146.133333c7.338667-10.368 16.725333-19.285333 27.776-26.325333 16.981333-10.794667 32.042667-20.309333 45.44-28.629333-5.930667-8.874667-12.458667-16-16.085333-16.896a20.906667 20.906667 0 0 1-20.864-21.290667c0-36.053333-35.456-69.333333-35.797333-69.632A21.376 21.376 0 0 1 228.736 469.333333c17.621333-2.005333 99.541333-48.298667 107.050667-66.602666 0-8.192 4.522667-14.336 11.946666-17.877334a17.066667 17.066667 0 0 1 7.594667-1.749333z m-63.957333 176.64c13.781333 7.125333 24.704 20.437333 32.128 32.042667 30.336-18.261333 47.658667-27.562667 58.154666-32.256 9.173333-25.472 34.602667-63.616 59.52-94.464a249.728 249.728 0 0 1-77.312-29.397334c-22.144 25.813333-65.792 51.157333-98.432 65.152 10.752 15.061333 22.101333 35.626667 25.941334 58.922667z" fill="#000000" p-id="20032"></path><path d="M271.402667 938.666667a21.333333 21.333333 0 0 1-21.333334-21.333334V810.666667a21.333333 21.333333 0 0 1 42.666667 0v106.666666a21.333333 21.333333 0 0 1-21.333333 21.333334zM868.693333 315.008c-9.941333 0-19.541333-2.304-28.586666-6.826667l-322.261334-161.109333a21.333333 21.333333 0 0 1-7.125333-32.426667l85.333333-106.666666a21.418667 21.418667 0 0 1 25.045334-6.272l298.666666 128a21.333333 21.333333 0 0 1 12.970667 19.626666v101.632c0 17.578667-6.912 33.877333-19.498667 45.994667a64.64 64.64 0 0 1-44.544 18.048z m-308.138666-194.304l298.666666 149.333333a21.504 21.504 0 0 0 24.448-3.797333 20.821333 20.821333 0 0 0 6.4-15.274667V163.370667l-270.805333-116.053334-58.709333 73.386667z" fill="#000000" p-id="20033"></path><path d="M271.402667 1024c-82.346667 0-149.333333-66.986667-149.333334-149.333333a148.906667 148.906667 0 0 1 92.672-138.069334 21.333333 21.333333 0 0 1 27.818667 11.562667c1.408 3.413333 3.114667 6.741333 5.248 9.941333a58.026667 58.026667 0 0 0 76.458667 17.28l22.186666-13.269333a21.162667 21.162667 0 0 1 25.344 2.56A149.546667 149.546667 0 0 1 420.778667 874.666667 149.546667 149.546667 0 0 1 271.402667 1024z m-57.130667-239.36a106.154667 106.154667 0 0 0-49.536 89.984c0 58.794667 47.872 106.666667 106.666667 106.666667s106.666667-47.872 106.666666-106.666667c0-24.832-8.533333-48.170667-24.32-67.2l-7.552 4.522667c-43.136 25.898667-102.912 13.226667-131.925333-27.306667z" fill="#000000" p-id="20034"></path></svg>