<?xml version="1.0" standalone="no"?><!DOCTYPE svg PUBLIC "-//W3C//DTD SVG 1.1//EN" "http://www.w3.org/Graphics/SVG/1.1/DTD/svg11.dtd"><svg t="1728112709847" class="icon" viewBox="0 0 1024 1024" version="1.1" xmlns="http://www.w3.org/2000/svg" p-id="4498" width="128" height="128" xmlns:xlink="http://www.w3.org/1999/xlink"><path d="M561.529696 280.746608l-37.119992-37.119992 111.146644-111.146644 259.199946 259.199946-111.146644 111.146644L746.702991 465.919903v-0.213333l-185.173295-184.959962z" fill="#1676C4" p-id="4499"></path><path d="M635.556348 132.479972L746.702991 21.333329l259.199946 259.199946-111.146643 111.146643z" fill="#FFB13B" p-id="4500"></path><path d="M431.929723 595.306543m-52.351989 0a52.351989 52.351989 0 1 0 104.703978 0 52.351989 52.351989 0 1 0-104.703978 0Z" fill="#6E6E6E" p-id="4501"></path><path d="M24.569808 1002.666458l191.35996-672.63986 222.719954 20.053329A103.807978 103.807978 0 0 0 522.063038 319.999933l39.466658-39.253325L746.702991 465.919903l-39.466658 39.253325a103.807978 103.807978 0 0 0-30.079994 83.413316l20.053329 222.719954z m370.34659-370.34659a52.351989 52.351989 0 1 0 0-74.026651 52.266656 52.266656 0 0 0 0 74.026651z" fill="#F0F0F0" p-id="4502"></path><path d="M467.236383 556.799884c0.576 0.512 1.216 0.874666 1.770666 1.429333a52.351989 52.351989 0 0 1-74.026651 74.026651c-0.554667-0.554667-0.917333-1.194666-1.429333-1.770666L25.849808 998.186459l-1.28 4.479999 672.63986-191.35996-20.053329-222.719954a103.381312 103.381312 0 0 1 16.106663-66.026653L597.369689 426.666578z" fill="#D9D9D9" p-id="4503"></path><path d="M409.977728 642.645199a50.474656 50.474656 0 0 1-27.135994-29.525327 20.991996 20.991996 0 0 0-6.207999 4.117333L37.839139 956.031801 24.569808 1002.666458l37.695992-10.666665 344.533262-344.533261a21.055996 21.055996 0 0 0 3.178666-4.821333z" fill="#6E6E6E" p-id="4504"></path><path d="M635.556348 132.479972l-111.146644 111.146644 37.119992 37.119992 37.567993 37.525326L710.222999 207.146624l-74.666651-74.666652z" fill="#0091FF" p-id="4505"></path><path d="M635.556348 132.479972L746.702991 21.333329l74.666651 74.666651-111.146643 111.146644z" fill="#FFE45C" p-id="4506"></path><path d="M286.373346 444.931777a48.76799 35.029326 44.98 1 0 49.521652-49.556237 48.76799 35.029326 44.98 1 0-49.521652 49.556237Z" fill="#F6FAFD" p-id="4507"></path><path d="M255.969026 496.886653a24.490662 17.599996 44.98 1 0 24.881463-24.898841 24.490662 17.599996 44.98 1 0-24.881463 24.898841Z" fill="#F6FAFD" p-id="4508"></path><path d="M747.423497 95.987813a12.245331 8.810665 44.98 1 0 12.455811-12.46451 12.245331 8.810665 44.98 1 0-12.455811 12.46451Z" fill="#F6FAFD" p-id="4509"></path><path d="M652.409677 371.626589l-90.879981-90.879981L522.063038 319.999933a104.234645 104.234645 0 0 1-17.386663 13.973331L597.369689 426.666578z" fill="#CFCFCF" p-id="4510"></path><path d="M746.702991 465.919903l-94.293314-94.293314L597.369689 426.666578l95.893313 95.99998a103.381312 103.381312 0 0 1 13.973331-17.386663z" fill="#C1C1C1" p-id="4511"></path><path d="M356.452406 697.749188l37.717325-37.717326a73.557318 73.557318 0 1 0-17.578663-116.842642 72.661318 72.661318 0 0 0-12.607997 86.677315l-37.695992 37.695993z m50.303989-124.373307a31.061327 31.061327 0 1 1-9.087998 21.951995 30.975994 30.975994 0 0 1 9.087998-21.951995zM94.521794 959.6798l219.263954-219.263954-30.165327-30.165327L64.356467 929.514473 181.369776 517.823892l-41.045325-11.647997-139.541304 490.666564A21.333329 21.333329 0 0 0 21.369809 1023.999787a21.567996 21.567996 0 0 0 5.823999-0.810667l191.99996-54.613322-11.647998-41.023991zM152.527115 463.487903l12.138664-42.666657 41.045325 11.647997-12.159998 42.666658z" p-id="4512"></path><path d="M1017.785601 265.471945l-173.887963-173.909297-30.165328 30.165327 158.805301 158.826633-80.93865 80.917317-114.51731-114.51731-114.517309-114.517309 80.917316-80.93865 27.583995 27.583994 30.165327-30.18666-42.666658-42.666658a21.333329 21.333329 0 0 0-30.165327 0L617.316351 117.333309l-111.103976 111.103977a21.333329 21.333329 0 0 0 0 30.165327l21.951995 21.951995-24.298662 24.298662a82.517316 82.517316 0 0 1-66.495986 24.063995l-222.719953-20.245329a21.205329 21.205329 0 0 0-22.463996 15.423996l-15.38133 54.079989 41.045325 11.647998 10.538664-37.055992 205.077291 18.666662a125.86664 125.86664 0 0 0 100.565312-36.501325l24.298662-24.298662L635.769681 388.266586l77.503984 77.48265-24.170662 24.255995a125.73864 125.73864 0 0 0-36.394659 100.543979l18.623996 205.098624-421.098579 119.765309 11.647998 41.023991 438.058575-124.586641a21.333329 21.333329 0 0 0 15.402664-22.442662L695.119002 586.666544a83.199983 83.199983 0 0 1 24.063995-66.517319l24.298661-24.298662 21.951996 21.951996a21.333329 21.333329 0 0 0 30.165327 0l111.103977-111.082644 111.103977-111.082643a21.333329 21.333329 0 0 0 0-30.165327z m-237.269284 207.103957l-114.538642-114.538643-92.565314-92.565314-21.930663-21.930662 80.93865-80.917317 114.495976 114.495976 114.51731 114.51731z" p-id="4513"></path></svg>