<?xml version="1.0" standalone="no"?>
<!DOCTYPE svg PUBLIC "-//W3C//DTD SVG 20010904//EN"
 "http://www.w3.org/TR/2001/REC-SVG-20010904/DTD/svg10.dtd">
<svg version="1.0" xmlns="http://www.w3.org/2000/svg"
 width="700.000000pt" height="700.000000pt" viewBox="0 0 700.000000 700.000000"
 preserveAspectRatio="xMidYMid meet">
<metadata>
Created by potrace 1.14, written by Peter Selinger 2001-2017
</metadata>
<g transform="translate(0.000000,700.000000) scale(0.100000,-0.100000)"
fill="#000000" stroke="none">
<path d="M5025 6986 c-32 -14 -1569 -1547 -1591 -1587 -17 -30 -17 -97 -1
-127 7 -12 50 -60 95 -106 l83 -83 -94 -94 c-119 -119 -135 -132 -199 -168
-95 -52 -152 -66 -278 -66 -101 0 -245 9 -320 20 -14 2 -61 7 -105 11 -44 3
-93 8 -110 9 -16 2 -66 6 -110 10 -44 3 -91 8 -105 10 -14 2 -61 7 -105 10
-44 4 -93 8 -110 10 -16 1 -63 6 -103 10 -41 4 -95 8 -120 10 -42 3 -126 11
-222 20 -159 17 -215 16 -247 -4 -48 -30 -59 -54 -112 -237 -70 -245 -68 -218
-13 -233 109 -30 114 -32 107 -50 -4 -9 -13 -38 -20 -66 -19 -73 -56 -199 -59
-203 -2 -1 -38 7 -80 18 -43 12 -79 20 -80 18 -2 -1 -21 -66 -43 -143 l-40
-140 76 -24 c42 -13 78 -25 80 -27 2 -2 -6 -39 -19 -81 -62 -216 -61 -213 -78
-204 -10 4 -38 13 -63 19 -26 7 -53 14 -62 18 -12 4 -20 -9 -36 -63 -23 -79
-197 -689 -276 -968 -29 -104 -85 -300 -124 -435 -38 -135 -140 -492 -226
-795 -86 -302 -190 -669 -232 -815 -42 -146 -78 -280 -80 -297 -7 -48 14 -100
50 -127 61 -46 83 -44 359 34 644 182 1064 303 1074 309 9 4 7 22 -7 66 -13
43 -15 61 -7 66 13 8 262 79 276 79 6 0 13 -16 16 -35 4 -19 12 -48 19 -63
l12 -29 185 53 c102 29 194 55 205 58 11 2 180 50 375 106 674 193 1095 312
1105 315 6 1 35 9 66 19 31 9 65 19 75 21 18 4 240 68 424 121 86 25 106 31
138 38 100 24 438 128 458 141 14 9 34 30 45 48 18 28 20 43 14 122 -3 50 -8
106 -10 125 -2 19 -6 75 -10 125 -4 49 -8 92 -10 95 -1 3 -6 46 -10 95 -3 50
-8 104 -9 120 -2 17 -6 66 -10 110 -9 104 -16 180 -21 230 -3 22 -7 72 -10
110 -3 39 -7 86 -10 105 -2 19 -7 71 -11 115 -4 44 -8 94 -10 110 -2 17 -6 82
-10 145 -12 212 38 327 221 511 l109 109 88 -87 c48 -48 96 -91 105 -95 34
-13 98 -8 128 10 17 11 377 366 802 791 564 564 775 781 783 806 12 37 10 76
-8 115 -6 14 -281 295 -612 625 l-600 599 -47 -46 -46 -46 -143 146 c-157 158
-152 147 -91 202 15 13 27 29 27 35 0 5 -71 80 -158 166 -122 121 -165 157
-191 162 -46 9 -61 8 -96 -7z"/>
</g>
</svg>
