<?xml version="1.0" standalone="no"?><!DOCTYPE svg PUBLIC "-//W3C//DTD SVG 1.1//EN" "http://www.w3.org/Graphics/SVG/1.1/DTD/svg11.dtd"><svg t="1738605015649" class="icon" viewBox="0 0 1024 1024" version="1.1" xmlns="http://www.w3.org/2000/svg" p-id="7327" xmlns:xlink="http://www.w3.org/1999/xlink" width="200" height="200"><path d="M512 960C759.423568 960 960 759.423568 960 512 960 264.576432 759.423568 64 512 64 264.576432 64 64 264.576432 64 512 64 759.423568 264.576432 960 512 960ZM367.388613 468.939058C367.388613 435.850299 366.663448 415.709619 365.213096 408.516411 362.312394 394.129994 368.113712 388.375514 382.617227 391.252797 404.372499 394.13008 426.127445 399.88456 447.882717 408.516411 453.684122 411.393694 456.584781 414.270934 456.584781 417.148218L552.307498 417.148218C562.459958 401.323158 573.33743 389.814198 584.940243 382.62099L332.580352 382.62099C336.931406 411.393824 331.855253 432.973125 317.351738 447.359541 292.695763 470.377806 269.490488 471.816427 247.735216 451.675443 236.132405 434.411744 237.582734 417.867613 252.08625 402.042555 273.841522 387.656139 286.169323 366.796149 289.070027 339.461957 289.070027 333.70739 289.795192 330.11084 291.245542 328.672198 294.146246 327.233557 298.497235 328.672178 304.29864 332.988102 314.451101 345.935877 321.702749 357.444837 326.053803 367.51533L467.462363 367.51533 467.462363 324.356296C466.012011 302.77667 464.561682 281.19737 463.11133 259.617746 458.760275 245.23133 465.28676 238.757539 482.690976 240.196181 502.995898 241.634822 526.926338 244.512062 554.483014 248.827987 566.085826 254.582554 567.536155 262.494965 558.834046 272.565456 551.58229 275.442739 548.68163 280.477909 550.131982 287.671117L550.131982 367.51533 565.360595 367.51533C578.413758 330.110646 588.566067 294.864454 595.817824 261.775698 597.268176 251.705206 605.244989 248.827966 619.748504 253.143891 634.252018 258.898458 656.732128 269.688107 687.189509 285.513166 691.540563 288.39045 692.990893 293.425619 691.540541 300.618827 690.09019 304.934752 686.464365 307.092682 680.66296 307.092682 669.060149 307.092682 661.083334 311.408542 656.73228 320.040392 639.328062 337.304091 621.198942 353.128912 602.344373 367.51533L674.136411 367.51533C684.28887 347.374346 693.716014 335.146075 702.418123 330.83015 728.524448 339.462 754.630382 358.164061 780.736709 386.936894 785.087763 395.568744 785.087763 403.481154 780.736709 410.674362 779.286358 413.551645 771.309544 414.990266 756.80603 414.990266 730.699704 414.990266 706.769264 424.341296 685.013992 443.043637 679.212587 448.798203 674.861597 450.956134 671.960894 449.517493 669.060192 448.078851 668.335027 443.04368 669.785378 434.41183L680.66296 382.62099 587.115758 382.62099C608.87103 388.375557 631.351141 399.884517 654.556765 417.148218 663.258872 427.218709 663.258872 435.850429 654.556765 443.043637 647.305006 447.359562 644.404347 453.114042 645.854699 460.30725L645.854699 490.518574C644.404347 503.466349 640.778523 511.378758 634.977117 514.256042 648.03028 520.010608 661.808413 527.203709 676.311926 535.835558 689.36509 547.344691 690.090254 558.134342 678.487443 568.204834 671.235686 572.520758 668.335027 578.994549 669.785378 587.626398L669.785378 594.100253C668.335027 608.48667 669.060192 631.50459 671.960894 663.154707 671.960894 674.66384 669.060235 681.856941 663.258829 684.734224 666.159533 687.611507 671.235686 689.769437 678.487443 691.208078 684.28885 694.085362 689.365003 696.243291 693.716058 697.681933 728.524493 717.822917 735.050976 742.998768 713.295704 773.210242 706.043947 778.964808 698.067133 782.561358 689.365026 784 669.060104 784 653.106478 775.36828 641.503666 758.104581 616.847691 725.015822 577.68879 698.401352 524.025786 678.260368 521.125083 678.260368 518.949589 676.821749 517.499237 673.944466 485.591506 744.437906 406.548538 780.403406 280.367962 781.842048 270.215501 780.403406 265.139347 778.964787 265.139347 777.526146 265.139347 774.648862 269.490336 771.771622 278.192445 768.894338 372.46529 740.121506 428.302982 699.840144 445.7072 648.049045 450.058254 630.785346 452.958914 609.925355 454.409266 585.468446 451.508562 572.520672 457.30988 566.766192 471.813395 568.204834 495.019019 571.082117 518.224293 575.397978 541.429917 581.152544 554.48308 586.90711 556.658574 594.100211 547.956466 602.732061 539.254357 605.609344 534.903368 612.083134 534.903368 622.153626 533.453016 627.908192 532.002686 632.943362 530.552336 637.259286 527.651632 650.207061 524.750973 659.558091 521.85027 665.312659 523.300621 663.874018 525.476117 663.154707 528.376819 663.154707 534.178224 664.593349 543.605368 665.312659 556.658531 665.312659 571.162045 666.751301 582.039518 667.47061 589.291275 667.47061L589.291275 553.099171 428.303069 553.099171 428.303069 555.257123C421.051312 559.573048 418.150653 563.888909 419.601005 568.204834L419.601005 673.944466C419.601005 688.330882 413.07452 696.962602 400.021357 699.839885 389.868898 704.15581 377.541094 706.313741 363.037581 706.313741 341.282309 707.752382 332.580331 700.559282 336.931386 684.734224L336.931386 663.154707C339.832088 635.820515 341.282418 614.960525 341.282418 600.574109L341.282418 585.468446C339.832066 563.888822 338.381736 545.186762 336.931386 529.361704 335.481034 520.729854 336.206198 515.694683 339.106901 514.256042 340.557253 511.378758 345.633406 510.659448 354.335515 512.09809 355.785867 512.09809 357.961362 512.8174 360.862064 514.256042 362.312416 515.694683 364.48791 515.694683 367.388613 514.256042L367.388613 468.939058ZM369.56413 326.514248C363.762723 303.495981 355.060746 286.232541 343.457934 274.723408 339.10688 271.846125 337.65655 268.968883 339.106901 266.0916 339.106901 263.214317 342.00756 261.056387 347.808966 259.617746 401.47197 262.495029 434.104389 275.44261 445.7072 298.460875 454.409309 330.110992 444.982165 351.690293 417.425488 363.199426 391.319162 367.51535 375.365534 355.28708 369.56413 326.514248ZM565.360595 432.253878 450.058232 432.253878C445.707178 435.131162 444.256848 439.447022 445.7072 445.201589L445.7072 484.044718 565.360595 484.044718 565.360595 432.253878ZM565.360595 501.308333 565.360595 496.992429 445.7072 496.992429C445.7072 509.940203 440.631046 517.852614 430.478586 520.729898 427.577883 520.729898 423.952059 521.449206 419.601005 522.887848 413.799598 524.32649 409.44861 525.0458 406.547906 525.0458 407.998258 526.484442 410.898917 527.923062 415.249971 529.361704 418.150675 530.800346 421.051334 531.519656 423.952037 531.519656 423.952037 532.958298 424.677202 533.677606 426.127554 533.677606 429.028256 535.116248 431.20375 535.835558 432.654102 535.835558L580.58921 535.835558C580.58921 534.396917 581.314374 532.958298 582.764726 531.519656 585.665429 527.203731 587.840923 523.607181 589.291275 520.729898 586.390573 523.607181 583.489914 524.32649 580.58921 522.887848 568.986398 525.765131 563.910245 518.572032 565.360595 501.308333Z" fill="#1095db" p-id="7328"></path></svg>