<?xml version="1.0" standalone="no"?><!DOCTYPE svg PUBLIC "-//W3C//DTD SVG 1.1//EN" "http://www.w3.org/Graphics/SVG/1.1/DTD/svg11.dtd"><svg t="1730173736162" class="icon" viewBox="0 0 1024 1024" version="1.1" xmlns="http://www.w3.org/2000/svg" p-id="1467" xmlns:xlink="http://www.w3.org/1999/xlink" width="200" height="200"><path d="M951 799.49l-383.89-651c-24.76-42-85.5-42-110.26 0L73 799.49C47.83 842.16 78.59 896 128.12 896h767.77c49.52 0 80.28-53.84 55.11-96.51z m-439-1.09a40 40 0 1 1 40-40 40 40 0 0 1-40 40z m32.92-159.95a33.17 33.17 0 0 1-66.3-0.06L470 393.88a42 42 0 1 1 84 0.08z" fill="#d81e06" p-id="1468"></path></svg>